# xmcd CD database file
#
# Track frame offsets:
#	150
#	5323
#	24129
#	44899
#	67511
#	82666
#	102859
#	106020
#	115771
#	128738
#	146515
#	161074
#	170908
#	181034
#	198548
#	220350
#	230425
#
# Disc length: 3322 seconds
#
# Revision: 0
# Processed by: cddbd v1.5.2PL0 Copyright (c) Steve Scherf et al.
# Submitted via: CDex 1.51
#
DISCID=d50cf811
DTITLE=Sampler - American Folk Blues Festival 1962 Paris  CD 1 
DYEAR=1962
DGENRE=Blues
TTITLE0=Festival Introduction
TTITLE1=John Lee Hooker - I`m In The Mood
TTITLE2=John Lee Hooker - Let`s Make It Baby
TTITLE3=John Lee Hooker - I Don`t Want To Lose You
TTITLE4=John Lee Hooker - Money
TTITLE5=John Lee Hooker - The Right Time
TTITLE6=Memphis Slim Introduction
TTITLE7=Memphis Slim - Band Introdution
TTITLE8=Memphis Slim - Rockin' The House
TTITLE9=Shakey Jake - Hey Baby
TTITLE10=Shakey Jake - Call Me When You Need Me
TTITLE11=Shakey Jake - Jake`s Blues
TTITLE12=Willie Dixon - Talking About The Blues
TTITLE13=Willie Dixon - Nervous
TTITLE14=Willie Dixon - I Just Want To Make Love To You
TTITLE15=Memphis Slim - Baby Please Don`t Go
TTITLE16=Memphis Slim - Pinetop`s Boogie Woogie
EXTD=YEAR: 1962
EXTT0=
EXTT1=
EXTT2=
EXTT3=
EXTT4=
EXTT5=
EXTT6=
EXTT7=
EXTT8=
EXTT9=
EXTT10=
EXTT11=
EXTT12=
EXTT13=
EXTT14=
EXTT15=
EXTT16=
PLAYORDER=
